<svg width="235" height="74" viewBox="0 0 235 74" fill="none" xmlns="http://www.w3.org/2000/svg">
<path d="M27.76 55L7.096 32.104V55H0.544001V4.816H7.096V28.072L27.832 4.816H36.112L13.36 29.944L36.328 55H27.76ZM79.6456 33.76C79.6456 35.008 79.5736 36.328 79.4296 37.72H47.8936C48.1336 41.608 49.4536 44.656 51.8536 46.864C54.3016 49.024 57.2536 50.104 60.7096 50.104C63.5416 50.104 65.8936 49.456 67.7656 48.16C69.6856 46.816 71.0296 45.04 71.7976 42.832H78.8536C77.7976 46.624 75.6856 49.72 72.5176 52.12C69.3496 54.472 65.4136 55.648 60.7096 55.648C56.9656 55.648 53.6056 54.808 50.6296 53.128C47.7016 51.448 45.3976 49.072 43.7176 46C42.0376 42.88 41.1976 39.28 41.1976 35.2C41.1976 31.12 42.0136 27.544 43.6456 24.472C45.2776 21.4 47.5576 19.048 50.4856 17.416C53.4616 15.736 56.8696 14.896 60.7096 14.896C64.4536 14.896 67.7656 15.712 70.6456 17.344C73.5256 18.976 75.7336 21.232 77.2696 24.112C78.8536 26.944 79.6456 30.16 79.6456 33.76ZM72.8776 32.392C72.8776 29.896 72.3256 27.76 71.2216 25.984C70.1176 24.16 68.6056 22.792 66.6856 21.88C64.8136 20.92 62.7256 20.44 60.4216 20.44C57.1096 20.44 54.2776 21.496 51.9256 23.608C49.6216 25.72 48.3016 28.648 47.9656 32.392H72.8776ZM94.846 21.952C95.998 19.696 97.63 17.944 99.742 16.696C101.902 15.448 104.518 14.824 107.59 14.824V21.592H105.862C98.518 21.592 94.846 25.576 94.846 33.544V55H88.294V15.544H94.846V21.952ZM118.681 9.136C117.433 9.136 116.377 8.704 115.513 7.84C114.697 6.976 114.289 5.92 114.289 4.672C114.289 3.424 114.697 2.368 115.513 1.504C116.377 0.639997 117.433 0.207997 118.681 0.207997C119.929 0.207997 120.961 0.639997 121.777 1.504C122.641 2.368 123.073 3.424 123.073 4.672C123.073 5.92 122.641 6.976 121.777 7.84C120.961 8.704 119.929 9.136 118.681 9.136ZM121.921 63.568C121.921 67.072 121.033 69.64 119.257 71.272C117.481 72.904 114.889 73.72 111.481 73.72H107.665V68.176H110.401C112.225 68.176 113.497 67.816 114.217 67.096C114.985 66.376 115.369 65.152 115.369 63.424V15.544H121.921V63.568ZM130.565 35.128C130.565 31.096 131.381 27.568 133.013 24.544C134.645 21.472 136.877 19.096 139.709 17.416C142.589 15.736 145.781 14.896 149.285 14.896C152.741 14.896 155.741 15.64 158.285 17.128C160.829 18.616 162.725 20.488 163.973 22.744V15.544H170.597V55H163.973V47.656C162.677 49.96 160.733 51.88 158.141 53.416C155.597 54.904 152.621 55.648 149.213 55.648C145.709 55.648 142.541 54.784 139.709 53.056C136.877 51.328 134.645 48.904 133.013 45.784C131.381 42.664 130.565 39.112 130.565 35.128ZM163.973 35.2C163.973 32.224 163.373 29.632 162.173 27.424C160.973 25.216 159.341 23.536 157.277 22.384C155.261 21.184 153.029 20.584 150.581 20.584C148.133 20.584 145.901 21.16 143.885 22.312C141.869 23.464 140.261 25.144 139.061 27.352C137.861 29.56 137.261 32.152 137.261 35.128C137.261 38.152 137.861 40.792 139.061 43.048C140.261 45.256 141.869 46.96 143.885 48.16C145.901 49.312 148.133 49.888 150.581 49.888C153.029 49.888 155.261 49.312 157.277 48.16C159.341 46.96 160.973 45.256 162.173 43.048C163.373 40.792 163.973 38.176 163.973 35.2Z" fill="#3A5EDE"/>
<path d="M188.221 4.816V55H181.669V4.816H188.221ZM218.612 14.824C223.412 14.824 227.3 16.288 230.276 19.216C233.252 22.096 234.74 26.272 234.74 31.744V55H228.26V32.68C228.26 28.744 227.276 25.744 225.308 23.68C223.34 21.568 220.652 20.512 217.244 20.512C213.788 20.512 211.028 21.592 208.964 23.752C206.948 25.912 205.94 29.056 205.94 33.184V55H199.388V15.544H205.94V21.16C207.236 19.144 208.988 17.584 211.196 16.48C213.452 15.376 215.924 14.824 218.612 14.824Z" fill="#313F72"/>
</svg>
